<mxfile host="app.diagrams.net" modified="2024-02-25T03:36:11.254Z" agent="Mozilla/5.0 (Macintosh; Intel Mac OS X 10_15_7) AppleWebKit/537.36 (KHTML, like Gecko) Chrome/121.0.0.0 Safari/537.36" etag="l0K9oudIE3umj_ajiYSr" version="23.1.6" type="device">
  <diagram id="C5RBs43oDa-KdzZeNtuy" name="Page-1">
    <mxGraphModel dx="1718" dy="734" grid="1" gridSize="10" guides="1" tooltips="1" connect="1" arrows="1" fold="1" page="1" pageScale="1" pageWidth="827" pageHeight="1169" math="0" shadow="0">
      <root>
        <mxCell id="WIyWlLk6GJQsqaUBKTNV-0" />
        <mxCell id="WIyWlLk6GJQsqaUBKTNV-1" parent="WIyWlLk6GJQsqaUBKTNV-0" />
        <mxCell id="JSByP0DEHDmS1XkmtdI1-201" style="edgeStyle=orthogonalEdgeStyle;rounded=0;orthogonalLoop=1;jettySize=auto;html=1;entryX=0.5;entryY=0;entryDx=0;entryDy=0;" edge="1" parent="WIyWlLk6GJQsqaUBKTNV-1" source="JSByP0DEHDmS1XkmtdI1-0" target="JSByP0DEHDmS1XkmtdI1-121">
          <mxGeometry relative="1" as="geometry" />
        </mxCell>
        <mxCell id="JSByP0DEHDmS1XkmtdI1-0" value="IPile&lt;br style=&quot;border-color: var(--border-color);&quot;&gt;&lt;br style=&quot;border-color: var(--border-color);&quot;&gt;&lt;i style=&quot;border-color: var(--border-color); font-weight: normal;&quot;&gt;/type/Pile&lt;/i&gt;" style="swimlane;fontStyle=1;align=center;verticalAlign=top;childLayout=stackLayout;horizontal=1;startSize=50;horizontalStack=0;resizeParent=1;resizeParentMax=0;resizeLast=0;collapsible=1;marginBottom=0;whiteSpace=wrap;html=1;fillColor=#dae8fc;strokeColor=#6c8ebf;" vertex="1" parent="WIyWlLk6GJQsqaUBKTNV-1">
          <mxGeometry x="315.5" y="380" width="264.5" height="318" as="geometry" />
        </mxCell>
        <mxCell id="JSByP0DEHDmS1XkmtdI1-1" value="+ id: int" style="text;strokeColor=none;fillColor=none;align=left;verticalAlign=top;spacingLeft=4;spacingRight=4;overflow=hidden;rotatable=0;points=[[0,0.5],[1,0.5]];portConstraint=eastwest;whiteSpace=wrap;html=1;" vertex="1" parent="JSByP0DEHDmS1XkmtdI1-0">
          <mxGeometry y="50" width="264.5" height="26" as="geometry" />
        </mxCell>
        <mxCell id="JSByP0DEHDmS1XkmtdI1-5" value="+ length: float" style="text;strokeColor=none;fillColor=none;align=left;verticalAlign=top;spacingLeft=4;spacingRight=4;overflow=hidden;rotatable=0;points=[[0,0.5],[1,0.5]];portConstraint=eastwest;whiteSpace=wrap;html=1;" vertex="1" parent="JSByP0DEHDmS1XkmtdI1-0">
          <mxGeometry y="76" width="264.5" height="26" as="geometry" />
        </mxCell>
        <mxCell id="JSByP0DEHDmS1XkmtdI1-6" value="+ diameter: float" style="text;strokeColor=none;fillColor=none;align=left;verticalAlign=top;spacingLeft=4;spacingRight=4;overflow=hidden;rotatable=0;points=[[0,0.5],[1,0.5]];portConstraint=eastwest;whiteSpace=wrap;html=1;" vertex="1" parent="JSByP0DEHDmS1XkmtdI1-0">
          <mxGeometry y="102" width="264.5" height="26" as="geometry" />
        </mxCell>
        <mxCell id="JSByP0DEHDmS1XkmtdI1-9" value="+ batterAngle: float" style="text;strokeColor=none;fillColor=none;align=left;verticalAlign=top;spacingLeft=4;spacingRight=4;overflow=hidden;rotatable=0;points=[[0,0.5],[1,0.5]];portConstraint=eastwest;whiteSpace=wrap;html=1;" vertex="1" parent="JSByP0DEHDmS1XkmtdI1-0">
          <mxGeometry y="128" width="264.5" height="26" as="geometry" />
        </mxCell>
        <mxCell id="JSByP0DEHDmS1XkmtdI1-11" value="+ helices:&amp;nbsp;IHelices&lt;span style=&quot;background-color: initial;&quot;&gt;&amp;nbsp;| null&lt;/span&gt;" style="text;strokeColor=none;fillColor=none;align=left;verticalAlign=top;spacingLeft=4;spacingRight=4;overflow=hidden;rotatable=0;points=[[0,0.5],[1,0.5]];portConstraint=eastwest;whiteSpace=wrap;html=1;" vertex="1" parent="JSByP0DEHDmS1XkmtdI1-0">
          <mxGeometry y="154" width="264.5" height="26" as="geometry" />
        </mxCell>
        <mxCell id="JSByP0DEHDmS1XkmtdI1-2" value="" style="line;strokeWidth=1;fillColor=none;align=left;verticalAlign=middle;spacingTop=-1;spacingLeft=3;spacingRight=3;rotatable=0;labelPosition=right;points=[];portConstraint=eastwest;strokeColor=inherit;" vertex="1" parent="JSByP0DEHDmS1XkmtdI1-0">
          <mxGeometry y="180" width="264.5" height="8" as="geometry" />
        </mxCell>
        <mxCell id="JSByP0DEHDmS1XkmtdI1-3" value="+ setId(id: int): void" style="text;strokeColor=none;fillColor=none;align=left;verticalAlign=top;spacingLeft=4;spacingRight=4;overflow=hidden;rotatable=0;points=[[0,0.5],[1,0.5]];portConstraint=eastwest;whiteSpace=wrap;html=1;" vertex="1" parent="JSByP0DEHDmS1XkmtdI1-0">
          <mxGeometry y="188" width="264.5" height="26" as="geometry" />
        </mxCell>
        <mxCell id="JSByP0DEHDmS1XkmtdI1-74" value="+ setLength(length: float): void" style="text;strokeColor=none;fillColor=none;align=left;verticalAlign=top;spacingLeft=4;spacingRight=4;overflow=hidden;rotatable=0;points=[[0,0.5],[1,0.5]];portConstraint=eastwest;whiteSpace=wrap;html=1;" vertex="1" parent="JSByP0DEHDmS1XkmtdI1-0">
          <mxGeometry y="214" width="264.5" height="26" as="geometry" />
        </mxCell>
        <mxCell id="JSByP0DEHDmS1XkmtdI1-75" value="+ setDiameter(diameter: float): void" style="text;strokeColor=none;fillColor=none;align=left;verticalAlign=top;spacingLeft=4;spacingRight=4;overflow=hidden;rotatable=0;points=[[0,0.5],[1,0.5]];portConstraint=eastwest;whiteSpace=wrap;html=1;" vertex="1" parent="JSByP0DEHDmS1XkmtdI1-0">
          <mxGeometry y="240" width="264.5" height="26" as="geometry" />
        </mxCell>
        <mxCell id="JSByP0DEHDmS1XkmtdI1-76" value="+ setBatterAngle(batterAngle: float): void" style="text;strokeColor=none;fillColor=none;align=left;verticalAlign=top;spacingLeft=4;spacingRight=4;overflow=hidden;rotatable=0;points=[[0,0.5],[1,0.5]];portConstraint=eastwest;whiteSpace=wrap;html=1;" vertex="1" parent="JSByP0DEHDmS1XkmtdI1-0">
          <mxGeometry y="266" width="264.5" height="26" as="geometry" />
        </mxCell>
        <mxCell id="JSByP0DEHDmS1XkmtdI1-77" value="+ setHelices(helices: IHelices): void" style="text;strokeColor=none;fillColor=none;align=left;verticalAlign=top;spacingLeft=4;spacingRight=4;overflow=hidden;rotatable=0;points=[[0,0.5],[1,0.5]];portConstraint=eastwest;whiteSpace=wrap;html=1;" vertex="1" parent="JSByP0DEHDmS1XkmtdI1-0">
          <mxGeometry y="292" width="264.5" height="26" as="geometry" />
        </mxCell>
        <mxCell id="JSByP0DEHDmS1XkmtdI1-17" value="IPiles&lt;br&gt;&lt;br&gt;&lt;i style=&quot;border-color: var(--border-color); font-weight: normal;&quot;&gt;/type/Pile&lt;/i&gt;" style="swimlane;fontStyle=1;align=center;verticalAlign=top;childLayout=stackLayout;horizontal=1;startSize=50;horizontalStack=0;resizeParent=1;resizeParentMax=0;resizeLast=0;collapsible=1;marginBottom=0;whiteSpace=wrap;html=1;fillColor=#dae8fc;strokeColor=#6c8ebf;" vertex="1" parent="WIyWlLk6GJQsqaUBKTNV-1">
          <mxGeometry x="700" y="360" width="260" height="214" as="geometry" />
        </mxCell>
        <mxCell id="JSByP0DEHDmS1XkmtdI1-18" value="+ piles: Array&amp;lt;IPile&amp;gt;" style="text;strokeColor=none;fillColor=none;align=left;verticalAlign=top;spacingLeft=4;spacingRight=4;overflow=hidden;rotatable=0;points=[[0,0.5],[1,0.5]];portConstraint=eastwest;whiteSpace=wrap;html=1;" vertex="1" parent="JSByP0DEHDmS1XkmtdI1-17">
          <mxGeometry y="50" width="260" height="26" as="geometry" />
        </mxCell>
        <mxCell id="JSByP0DEHDmS1XkmtdI1-19" value="+ number: int" style="text;strokeColor=none;fillColor=none;align=left;verticalAlign=top;spacingLeft=4;spacingRight=4;overflow=hidden;rotatable=0;points=[[0,0.5],[1,0.5]];portConstraint=eastwest;whiteSpace=wrap;html=1;" vertex="1" parent="JSByP0DEHDmS1XkmtdI1-17">
          <mxGeometry y="76" width="260" height="26" as="geometry" />
        </mxCell>
        <mxCell id="JSByP0DEHDmS1XkmtdI1-197" value="+ spacingRadius: float" style="text;strokeColor=none;fillColor=none;align=left;verticalAlign=top;spacingLeft=4;spacingRight=4;overflow=hidden;rotatable=0;points=[[0,0.5],[1,0.5]];portConstraint=eastwest;whiteSpace=wrap;html=1;" vertex="1" parent="JSByP0DEHDmS1XkmtdI1-17">
          <mxGeometry y="102" width="260" height="26" as="geometry" />
        </mxCell>
        <mxCell id="JSByP0DEHDmS1XkmtdI1-27" value="" style="line;strokeWidth=1;fillColor=none;align=left;verticalAlign=middle;spacingTop=-1;spacingLeft=3;spacingRight=3;rotatable=0;labelPosition=right;points=[];portConstraint=eastwest;strokeColor=inherit;" vertex="1" parent="JSByP0DEHDmS1XkmtdI1-17">
          <mxGeometry y="128" width="260" height="8" as="geometry" />
        </mxCell>
        <mxCell id="JSByP0DEHDmS1XkmtdI1-28" value="+ setPiles(helices: Array&amp;lt;IHelix&amp;gt;): void" style="text;strokeColor=none;fillColor=none;align=left;verticalAlign=top;spacingLeft=4;spacingRight=4;overflow=hidden;rotatable=0;points=[[0,0.5],[1,0.5]];portConstraint=eastwest;whiteSpace=wrap;html=1;" vertex="1" parent="JSByP0DEHDmS1XkmtdI1-17">
          <mxGeometry y="136" width="260" height="26" as="geometry" />
        </mxCell>
        <mxCell id="JSByP0DEHDmS1XkmtdI1-31" value="+ setNumber(number: int): void" style="text;strokeColor=none;fillColor=none;align=left;verticalAlign=top;spacingLeft=4;spacingRight=4;overflow=hidden;rotatable=0;points=[[0,0.5],[1,0.5]];portConstraint=eastwest;whiteSpace=wrap;html=1;" vertex="1" parent="JSByP0DEHDmS1XkmtdI1-17">
          <mxGeometry y="162" width="260" height="26" as="geometry" />
        </mxCell>
        <mxCell id="JSByP0DEHDmS1XkmtdI1-198" value="+ spacingRadius(spacingRadius: float) void" style="text;strokeColor=none;fillColor=none;align=left;verticalAlign=top;spacingLeft=4;spacingRight=4;overflow=hidden;rotatable=0;points=[[0,0.5],[1,0.5]];portConstraint=eastwest;whiteSpace=wrap;html=1;" vertex="1" parent="JSByP0DEHDmS1XkmtdI1-17">
          <mxGeometry y="188" width="260" height="26" as="geometry" />
        </mxCell>
        <mxCell id="JSByP0DEHDmS1XkmtdI1-33" value="Position&lt;br&gt;&lt;br&gt;&lt;i style=&quot;border-color: var(--border-color); font-weight: normal;&quot;&gt;/types/common/Common&lt;/i&gt;" style="swimlane;fontStyle=1;align=center;verticalAlign=top;childLayout=stackLayout;horizontal=1;startSize=50;horizontalStack=0;resizeParent=1;resizeParentMax=0;resizeLast=0;collapsible=1;marginBottom=0;whiteSpace=wrap;html=1;fillColor=#dae8fc;strokeColor=#6c8ebf;" vertex="1" parent="WIyWlLk6GJQsqaUBKTNV-1">
          <mxGeometry x="1480" y="510" width="150" height="214" as="geometry" />
        </mxCell>
        <mxCell id="JSByP0DEHDmS1XkmtdI1-34" value="+ x: float" style="text;strokeColor=none;fillColor=none;align=left;verticalAlign=top;spacingLeft=4;spacingRight=4;overflow=hidden;rotatable=0;points=[[0,0.5],[1,0.5]];portConstraint=eastwest;whiteSpace=wrap;html=1;" vertex="1" parent="JSByP0DEHDmS1XkmtdI1-33">
          <mxGeometry y="50" width="150" height="26" as="geometry" />
        </mxCell>
        <mxCell id="JSByP0DEHDmS1XkmtdI1-35" value="+ y: float" style="text;strokeColor=none;fillColor=none;align=left;verticalAlign=top;spacingLeft=4;spacingRight=4;overflow=hidden;rotatable=0;points=[[0,0.5],[1,0.5]];portConstraint=eastwest;whiteSpace=wrap;html=1;" vertex="1" parent="JSByP0DEHDmS1XkmtdI1-33">
          <mxGeometry y="76" width="150" height="26" as="geometry" />
        </mxCell>
        <mxCell id="JSByP0DEHDmS1XkmtdI1-39" value="+ z: float" style="text;strokeColor=none;fillColor=none;align=left;verticalAlign=top;spacingLeft=4;spacingRight=4;overflow=hidden;rotatable=0;points=[[0,0.5],[1,0.5]];portConstraint=eastwest;whiteSpace=wrap;html=1;" vertex="1" parent="JSByP0DEHDmS1XkmtdI1-33">
          <mxGeometry y="102" width="150" height="26" as="geometry" />
        </mxCell>
        <mxCell id="JSByP0DEHDmS1XkmtdI1-36" value="" style="line;strokeWidth=1;fillColor=none;align=left;verticalAlign=middle;spacingTop=-1;spacingLeft=3;spacingRight=3;rotatable=0;labelPosition=right;points=[];portConstraint=eastwest;strokeColor=inherit;" vertex="1" parent="JSByP0DEHDmS1XkmtdI1-33">
          <mxGeometry y="128" width="150" height="8" as="geometry" />
        </mxCell>
        <mxCell id="JSByP0DEHDmS1XkmtdI1-37" value="+ setX (x: float): void" style="text;strokeColor=none;fillColor=none;align=left;verticalAlign=top;spacingLeft=4;spacingRight=4;overflow=hidden;rotatable=0;points=[[0,0.5],[1,0.5]];portConstraint=eastwest;whiteSpace=wrap;html=1;" vertex="1" parent="JSByP0DEHDmS1XkmtdI1-33">
          <mxGeometry y="136" width="150" height="26" as="geometry" />
        </mxCell>
        <mxCell id="JSByP0DEHDmS1XkmtdI1-38" value="+ setY (y: float): void" style="text;strokeColor=none;fillColor=none;align=left;verticalAlign=top;spacingLeft=4;spacingRight=4;overflow=hidden;rotatable=0;points=[[0,0.5],[1,0.5]];portConstraint=eastwest;whiteSpace=wrap;html=1;" vertex="1" parent="JSByP0DEHDmS1XkmtdI1-33">
          <mxGeometry y="162" width="150" height="26" as="geometry" />
        </mxCell>
        <mxCell id="JSByP0DEHDmS1XkmtdI1-40" value="+ setZ (z: float): void" style="text;strokeColor=none;fillColor=none;align=left;verticalAlign=top;spacingLeft=4;spacingRight=4;overflow=hidden;rotatable=0;points=[[0,0.5],[1,0.5]];portConstraint=eastwest;whiteSpace=wrap;html=1;" vertex="1" parent="JSByP0DEHDmS1XkmtdI1-33">
          <mxGeometry y="188" width="150" height="26" as="geometry" />
        </mxCell>
        <mxCell id="JSByP0DEHDmS1XkmtdI1-42" style="edgeStyle=orthogonalEdgeStyle;rounded=0;orthogonalLoop=1;jettySize=auto;html=1;entryX=1;entryY=0.5;entryDx=0;entryDy=0;" edge="1" parent="WIyWlLk6GJQsqaUBKTNV-1" source="JSByP0DEHDmS1XkmtdI1-18" target="JSByP0DEHDmS1XkmtdI1-1">
          <mxGeometry relative="1" as="geometry" />
        </mxCell>
        <mxCell id="JSByP0DEHDmS1XkmtdI1-59" style="edgeStyle=orthogonalEdgeStyle;rounded=0;orthogonalLoop=1;jettySize=auto;html=1;entryX=0.5;entryY=0;entryDx=0;entryDy=0;" edge="1" parent="WIyWlLk6GJQsqaUBKTNV-1" source="JSByP0DEHDmS1XkmtdI1-43" target="JSByP0DEHDmS1XkmtdI1-17">
          <mxGeometry relative="1" as="geometry" />
        </mxCell>
        <mxCell id="JSByP0DEHDmS1XkmtdI1-43" value="PileContextType&lt;br&gt;&lt;br&gt;&lt;i style=&quot;border-color: var(--border-color); font-weight: normal;&quot;&gt;/context/PileContext&lt;/i&gt;" style="swimlane;fontStyle=1;align=center;verticalAlign=top;childLayout=stackLayout;horizontal=1;startSize=50;horizontalStack=0;resizeParent=1;resizeParentMax=0;resizeLast=0;collapsible=1;marginBottom=0;whiteSpace=wrap;html=1;fillColor=#d5e8d4;strokeColor=#82b366;" vertex="1" parent="WIyWlLk6GJQsqaUBKTNV-1">
          <mxGeometry x="700" y="80" width="210" height="108" as="geometry" />
        </mxCell>
        <mxCell id="JSByP0DEHDmS1XkmtdI1-44" value="+ piles: IPiles" style="text;strokeColor=none;fillColor=none;align=left;verticalAlign=top;spacingLeft=4;spacingRight=4;overflow=hidden;rotatable=0;points=[[0,0.5],[1,0.5]];portConstraint=eastwest;whiteSpace=wrap;html=1;" vertex="1" parent="JSByP0DEHDmS1XkmtdI1-43">
          <mxGeometry y="50" width="210" height="24" as="geometry" />
        </mxCell>
        <mxCell id="JSByP0DEHDmS1XkmtdI1-53" value="" style="line;strokeWidth=1;fillColor=none;align=left;verticalAlign=middle;spacingTop=-1;spacingLeft=3;spacingRight=3;rotatable=0;labelPosition=right;points=[];portConstraint=eastwest;strokeColor=inherit;" vertex="1" parent="JSByP0DEHDmS1XkmtdI1-43">
          <mxGeometry y="74" width="210" height="8" as="geometry" />
        </mxCell>
        <mxCell id="JSByP0DEHDmS1XkmtdI1-54" value="+ setPiles(piles: Array&amp;lt;IPile&amp;gt;): void" style="text;strokeColor=none;fillColor=none;align=left;verticalAlign=top;spacingLeft=4;spacingRight=4;overflow=hidden;rotatable=0;points=[[0,0.5],[1,0.5]];portConstraint=eastwest;whiteSpace=wrap;html=1;" vertex="1" parent="JSByP0DEHDmS1XkmtdI1-43">
          <mxGeometry y="82" width="210" height="26" as="geometry" />
        </mxCell>
        <mxCell id="JSByP0DEHDmS1XkmtdI1-72" value="implements" style="edgeStyle=orthogonalEdgeStyle;rounded=0;orthogonalLoop=1;jettySize=auto;html=1;entryX=0;entryY=0.5;entryDx=0;entryDy=0;" edge="1" parent="WIyWlLk6GJQsqaUBKTNV-1" source="JSByP0DEHDmS1XkmtdI1-60">
          <mxGeometry relative="1" as="geometry">
            <mxPoint x="315.5" y="521.0000000000002" as="targetPoint" />
          </mxGeometry>
        </mxCell>
        <mxCell id="JSByP0DEHDmS1XkmtdI1-60" value="Pile&lt;br&gt;&lt;br&gt;&lt;span style=&quot;font-weight: normal;&quot;&gt;&lt;i&gt;/components/Piles&lt;/i&gt;&lt;/span&gt;" style="swimlane;fontStyle=1;align=center;verticalAlign=top;childLayout=stackLayout;horizontal=1;startSize=60;horizontalStack=0;resizeParent=1;resizeParentMax=0;resizeLast=0;collapsible=1;marginBottom=0;whiteSpace=wrap;html=1;rounded=0;" vertex="1" parent="WIyWlLk6GJQsqaUBKTNV-1">
          <mxGeometry x="10" y="360" width="160" height="328" as="geometry" />
        </mxCell>
        <mxCell id="JSByP0DEHDmS1XkmtdI1-61" value="+ id: number" style="text;strokeColor=none;fillColor=none;align=left;verticalAlign=top;spacingLeft=4;spacingRight=4;overflow=hidden;rotatable=0;points=[[0,0.5],[1,0.5]];portConstraint=eastwest;whiteSpace=wrap;html=1;" vertex="1" parent="JSByP0DEHDmS1XkmtdI1-60">
          <mxGeometry y="60" width="160" height="26" as="geometry" />
        </mxCell>
        <mxCell id="JSByP0DEHDmS1XkmtdI1-62" value="+ length: float" style="text;strokeColor=none;fillColor=none;align=left;verticalAlign=top;spacingLeft=4;spacingRight=4;overflow=hidden;rotatable=0;points=[[0,0.5],[1,0.5]];portConstraint=eastwest;whiteSpace=wrap;html=1;" vertex="1" parent="JSByP0DEHDmS1XkmtdI1-60">
          <mxGeometry y="86" width="160" height="26" as="geometry" />
        </mxCell>
        <mxCell id="JSByP0DEHDmS1XkmtdI1-63" value="+ diameter: float" style="text;strokeColor=none;fillColor=none;align=left;verticalAlign=top;spacingLeft=4;spacingRight=4;overflow=hidden;rotatable=0;points=[[0,0.5],[1,0.5]];portConstraint=eastwest;whiteSpace=wrap;html=1;" vertex="1" parent="JSByP0DEHDmS1XkmtdI1-60">
          <mxGeometry y="112" width="160" height="26" as="geometry" />
        </mxCell>
        <mxCell id="JSByP0DEHDmS1XkmtdI1-64" value="+ radius: float" style="text;strokeColor=none;fillColor=none;align=left;verticalAlign=top;spacingLeft=4;spacingRight=4;overflow=hidden;rotatable=0;points=[[0,0.5],[1,0.5]];portConstraint=eastwest;whiteSpace=wrap;html=1;" vertex="1" parent="JSByP0DEHDmS1XkmtdI1-60">
          <mxGeometry y="138" width="160" height="26" as="geometry" />
        </mxCell>
        <mxCell id="JSByP0DEHDmS1XkmtdI1-65" value="+ batterAngle: float" style="text;strokeColor=none;fillColor=none;align=left;verticalAlign=top;spacingLeft=4;spacingRight=4;overflow=hidden;rotatable=0;points=[[0,0.5],[1,0.5]];portConstraint=eastwest;whiteSpace=wrap;html=1;" vertex="1" parent="JSByP0DEHDmS1XkmtdI1-60">
          <mxGeometry y="164" width="160" height="26" as="geometry" />
        </mxCell>
        <mxCell id="JSByP0DEHDmS1XkmtdI1-66" value="+ position: Position" style="text;strokeColor=none;fillColor=none;align=left;verticalAlign=top;spacingLeft=4;spacingRight=4;overflow=hidden;rotatable=0;points=[[0,0.5],[1,0.5]];portConstraint=eastwest;whiteSpace=wrap;html=1;" vertex="1" parent="JSByP0DEHDmS1XkmtdI1-60">
          <mxGeometry y="190" width="160" height="26" as="geometry" />
        </mxCell>
        <mxCell id="JSByP0DEHDmS1XkmtdI1-67" value="+ field: type" style="text;strokeColor=none;fillColor=none;align=left;verticalAlign=top;spacingLeft=4;spacingRight=4;overflow=hidden;rotatable=0;points=[[0,0.5],[1,0.5]];portConstraint=eastwest;whiteSpace=wrap;html=1;" vertex="1" parent="JSByP0DEHDmS1XkmtdI1-60">
          <mxGeometry y="216" width="160" height="26" as="geometry" />
        </mxCell>
        <mxCell id="JSByP0DEHDmS1XkmtdI1-68" value="+ field: type" style="text;strokeColor=none;fillColor=none;align=left;verticalAlign=top;spacingLeft=4;spacingRight=4;overflow=hidden;rotatable=0;points=[[0,0.5],[1,0.5]];portConstraint=eastwest;whiteSpace=wrap;html=1;" vertex="1" parent="JSByP0DEHDmS1XkmtdI1-60">
          <mxGeometry y="242" width="160" height="26" as="geometry" />
        </mxCell>
        <mxCell id="JSByP0DEHDmS1XkmtdI1-69" value="+ field: type" style="text;strokeColor=none;fillColor=none;align=left;verticalAlign=top;spacingLeft=4;spacingRight=4;overflow=hidden;rotatable=0;points=[[0,0.5],[1,0.5]];portConstraint=eastwest;whiteSpace=wrap;html=1;" vertex="1" parent="JSByP0DEHDmS1XkmtdI1-60">
          <mxGeometry y="268" width="160" height="26" as="geometry" />
        </mxCell>
        <mxCell id="JSByP0DEHDmS1XkmtdI1-70" value="" style="line;strokeWidth=1;fillColor=none;align=left;verticalAlign=middle;spacingTop=-1;spacingLeft=3;spacingRight=3;rotatable=0;labelPosition=right;points=[];portConstraint=eastwest;strokeColor=inherit;" vertex="1" parent="JSByP0DEHDmS1XkmtdI1-60">
          <mxGeometry y="294" width="160" height="8" as="geometry" />
        </mxCell>
        <mxCell id="JSByP0DEHDmS1XkmtdI1-71" value="+ method(type): type" style="text;strokeColor=none;fillColor=none;align=left;verticalAlign=top;spacingLeft=4;spacingRight=4;overflow=hidden;rotatable=0;points=[[0,0.5],[1,0.5]];portConstraint=eastwest;whiteSpace=wrap;html=1;" vertex="1" parent="JSByP0DEHDmS1XkmtdI1-60">
          <mxGeometry y="302" width="160" height="26" as="geometry" />
        </mxCell>
        <mxCell id="JSByP0DEHDmS1XkmtdI1-102" value="Helix&lt;br style=&quot;border-color: var(--border-color);&quot;&gt;&lt;br style=&quot;border-color: var(--border-color);&quot;&gt;&lt;i style=&quot;border-color: var(--border-color); font-weight: normal;&quot;&gt;/components/Helix&lt;/i&gt;" style="swimlane;fontStyle=1;align=center;verticalAlign=top;childLayout=stackLayout;horizontal=1;startSize=50;horizontalStack=0;resizeParent=1;resizeParentMax=0;resizeLast=0;collapsible=1;marginBottom=0;whiteSpace=wrap;html=1;" vertex="1" parent="WIyWlLk6GJQsqaUBKTNV-1">
          <mxGeometry x="-650" y="310" width="264.5" height="474" as="geometry" />
        </mxCell>
        <mxCell id="JSByP0DEHDmS1XkmtdI1-103" value="+ id: int" style="text;strokeColor=none;fillColor=none;align=left;verticalAlign=top;spacingLeft=4;spacingRight=4;overflow=hidden;rotatable=0;points=[[0,0.5],[1,0.5]];portConstraint=eastwest;whiteSpace=wrap;html=1;" vertex="1" parent="JSByP0DEHDmS1XkmtdI1-102">
          <mxGeometry y="50" width="264.5" height="26" as="geometry" />
        </mxCell>
        <mxCell id="JSByP0DEHDmS1XkmtdI1-104" value="+ number: float" style="text;strokeColor=none;fillColor=none;align=left;verticalAlign=top;spacingLeft=4;spacingRight=4;overflow=hidden;rotatable=0;points=[[0,0.5],[1,0.5]];portConstraint=eastwest;whiteSpace=wrap;html=1;" vertex="1" parent="JSByP0DEHDmS1XkmtdI1-102">
          <mxGeometry y="76" width="264.5" height="26" as="geometry" />
        </mxCell>
        <mxCell id="JSByP0DEHDmS1XkmtdI1-106" value="+ radius: float" style="text;strokeColor=none;fillColor=none;align=left;verticalAlign=top;spacingLeft=4;spacingRight=4;overflow=hidden;rotatable=0;points=[[0,0.5],[1,0.5]];portConstraint=eastwest;whiteSpace=wrap;html=1;" vertex="1" parent="JSByP0DEHDmS1XkmtdI1-102">
          <mxGeometry y="102" width="264.5" height="26" as="geometry" />
        </mxCell>
        <mxCell id="JSByP0DEHDmS1XkmtdI1-107" value="+ batterAngle: float" style="text;strokeColor=none;fillColor=none;align=left;verticalAlign=top;spacingLeft=4;spacingRight=4;overflow=hidden;rotatable=0;points=[[0,0.5],[1,0.5]];portConstraint=eastwest;whiteSpace=wrap;html=1;" vertex="1" parent="JSByP0DEHDmS1XkmtdI1-102">
          <mxGeometry y="128" width="264.5" height="26" as="geometry" />
        </mxCell>
        <mxCell id="JSByP0DEHDmS1XkmtdI1-108" value="+ position: Position" style="text;strokeColor=none;fillColor=none;align=left;verticalAlign=top;spacingLeft=4;spacingRight=4;overflow=hidden;rotatable=0;points=[[0,0.5],[1,0.5]];portConstraint=eastwest;whiteSpace=wrap;html=1;" vertex="1" parent="JSByP0DEHDmS1XkmtdI1-102">
          <mxGeometry y="154" width="264.5" height="26" as="geometry" />
        </mxCell>
        <mxCell id="JSByP0DEHDmS1XkmtdI1-109" value="+ rotation: float" style="text;strokeColor=none;fillColor=none;align=left;verticalAlign=top;spacingLeft=4;spacingRight=4;overflow=hidden;rotatable=0;points=[[0,0.5],[1,0.5]];portConstraint=eastwest;whiteSpace=wrap;html=1;" vertex="1" parent="JSByP0DEHDmS1XkmtdI1-102">
          <mxGeometry y="180" width="264.5" height="26" as="geometry" />
        </mxCell>
        <mxCell id="JSByP0DEHDmS1XkmtdI1-110" value="+ helices: Array&amp;lt;IHelix&amp;gt; | null" style="text;strokeColor=none;fillColor=none;align=left;verticalAlign=top;spacingLeft=4;spacingRight=4;overflow=hidden;rotatable=0;points=[[0,0.5],[1,0.5]];portConstraint=eastwest;whiteSpace=wrap;html=1;" vertex="1" parent="JSByP0DEHDmS1XkmtdI1-102">
          <mxGeometry y="206" width="264.5" height="26" as="geometry" />
        </mxCell>
        <mxCell id="JSByP0DEHDmS1XkmtdI1-111" value="" style="line;strokeWidth=1;fillColor=none;align=left;verticalAlign=middle;spacingTop=-1;spacingLeft=3;spacingRight=3;rotatable=0;labelPosition=right;points=[];portConstraint=eastwest;strokeColor=inherit;" vertex="1" parent="JSByP0DEHDmS1XkmtdI1-102">
          <mxGeometry y="232" width="264.5" height="8" as="geometry" />
        </mxCell>
        <mxCell id="JSByP0DEHDmS1XkmtdI1-112" value="+ setId(id: int): void" style="text;strokeColor=none;fillColor=none;align=left;verticalAlign=top;spacingLeft=4;spacingRight=4;overflow=hidden;rotatable=0;points=[[0,0.5],[1,0.5]];portConstraint=eastwest;whiteSpace=wrap;html=1;" vertex="1" parent="JSByP0DEHDmS1XkmtdI1-102">
          <mxGeometry y="240" width="264.5" height="26" as="geometry" />
        </mxCell>
        <mxCell id="JSByP0DEHDmS1XkmtdI1-113" value="+ setLength(length: float): void" style="text;strokeColor=none;fillColor=none;align=left;verticalAlign=top;spacingLeft=4;spacingRight=4;overflow=hidden;rotatable=0;points=[[0,0.5],[1,0.5]];portConstraint=eastwest;whiteSpace=wrap;html=1;" vertex="1" parent="JSByP0DEHDmS1XkmtdI1-102">
          <mxGeometry y="266" width="264.5" height="26" as="geometry" />
        </mxCell>
        <mxCell id="JSByP0DEHDmS1XkmtdI1-114" value="+ setDiameter(diameter: float): void" style="text;strokeColor=none;fillColor=none;align=left;verticalAlign=top;spacingLeft=4;spacingRight=4;overflow=hidden;rotatable=0;points=[[0,0.5],[1,0.5]];portConstraint=eastwest;whiteSpace=wrap;html=1;" vertex="1" parent="JSByP0DEHDmS1XkmtdI1-102">
          <mxGeometry y="292" width="264.5" height="26" as="geometry" />
        </mxCell>
        <mxCell id="JSByP0DEHDmS1XkmtdI1-115" value="+ setRadius(radius: float): void" style="text;strokeColor=none;fillColor=none;align=left;verticalAlign=top;spacingLeft=4;spacingRight=4;overflow=hidden;rotatable=0;points=[[0,0.5],[1,0.5]];portConstraint=eastwest;whiteSpace=wrap;html=1;" vertex="1" parent="JSByP0DEHDmS1XkmtdI1-102">
          <mxGeometry y="318" width="264.5" height="26" as="geometry" />
        </mxCell>
        <mxCell id="JSByP0DEHDmS1XkmtdI1-116" value="+ setBatterAngle(batterAngle: float): void" style="text;strokeColor=none;fillColor=none;align=left;verticalAlign=top;spacingLeft=4;spacingRight=4;overflow=hidden;rotatable=0;points=[[0,0.5],[1,0.5]];portConstraint=eastwest;whiteSpace=wrap;html=1;" vertex="1" parent="JSByP0DEHDmS1XkmtdI1-102">
          <mxGeometry y="344" width="264.5" height="26" as="geometry" />
        </mxCell>
        <mxCell id="JSByP0DEHDmS1XkmtdI1-117" value="+ setBatterAngle(batterAngle: float): void" style="text;strokeColor=none;fillColor=none;align=left;verticalAlign=top;spacingLeft=4;spacingRight=4;overflow=hidden;rotatable=0;points=[[0,0.5],[1,0.5]];portConstraint=eastwest;whiteSpace=wrap;html=1;" vertex="1" parent="JSByP0DEHDmS1XkmtdI1-102">
          <mxGeometry y="370" width="264.5" height="26" as="geometry" />
        </mxCell>
        <mxCell id="JSByP0DEHDmS1XkmtdI1-118" value="+ setPosition: Position): void" style="text;strokeColor=none;fillColor=none;align=left;verticalAlign=top;spacingLeft=4;spacingRight=4;overflow=hidden;rotatable=0;points=[[0,0.5],[1,0.5]];portConstraint=eastwest;whiteSpace=wrap;html=1;" vertex="1" parent="JSByP0DEHDmS1XkmtdI1-102">
          <mxGeometry y="396" width="264.5" height="26" as="geometry" />
        </mxCell>
        <mxCell id="JSByP0DEHDmS1XkmtdI1-119" value="+ setRotation(rotation: float): void" style="text;strokeColor=none;fillColor=none;align=left;verticalAlign=top;spacingLeft=4;spacingRight=4;overflow=hidden;rotatable=0;points=[[0,0.5],[1,0.5]];portConstraint=eastwest;whiteSpace=wrap;html=1;" vertex="1" parent="JSByP0DEHDmS1XkmtdI1-102">
          <mxGeometry y="422" width="264.5" height="26" as="geometry" />
        </mxCell>
        <mxCell id="JSByP0DEHDmS1XkmtdI1-120" value="+ setHelices(helices: Array&amp;lt;IHelix&amp;gt;): void" style="text;strokeColor=none;fillColor=none;align=left;verticalAlign=top;spacingLeft=4;spacingRight=4;overflow=hidden;rotatable=0;points=[[0,0.5],[1,0.5]];portConstraint=eastwest;whiteSpace=wrap;html=1;" vertex="1" parent="JSByP0DEHDmS1XkmtdI1-102">
          <mxGeometry y="448" width="264.5" height="26" as="geometry" />
        </mxCell>
        <mxCell id="JSByP0DEHDmS1XkmtdI1-121" value="IHelices&lt;br style=&quot;border-color: var(--border-color);&quot;&gt;&lt;br style=&quot;border-color: var(--border-color);&quot;&gt;&lt;i style=&quot;border-color: var(--border-color); font-weight: normal;&quot;&gt;/types/Helix&lt;/i&gt;" style="swimlane;fontStyle=1;align=center;verticalAlign=top;childLayout=stackLayout;horizontal=1;startSize=50;horizontalStack=0;resizeParent=1;resizeParentMax=0;resizeLast=0;collapsible=1;marginBottom=0;whiteSpace=wrap;html=1;fillColor=#dae8fc;strokeColor=#6c8ebf;" vertex="1" parent="WIyWlLk6GJQsqaUBKTNV-1">
          <mxGeometry x="330" y="940" width="264.5" height="266" as="geometry" />
        </mxCell>
        <mxCell id="JSByP0DEHDmS1XkmtdI1-122" value="+ helices: Array&amp;lt;IHelix&amp;gt;" style="text;strokeColor=none;fillColor=none;align=left;verticalAlign=top;spacingLeft=4;spacingRight=4;overflow=hidden;rotatable=0;points=[[0,0.5],[1,0.5]];portConstraint=eastwest;whiteSpace=wrap;html=1;" vertex="1" parent="JSByP0DEHDmS1XkmtdI1-121">
          <mxGeometry y="50" width="264.5" height="26" as="geometry" />
        </mxCell>
        <mxCell id="JSByP0DEHDmS1XkmtdI1-123" value="+ distanceFromBottom: float" style="text;strokeColor=none;fillColor=none;align=left;verticalAlign=top;spacingLeft=4;spacingRight=4;overflow=hidden;rotatable=0;points=[[0,0.5],[1,0.5]];portConstraint=eastwest;whiteSpace=wrap;html=1;" vertex="1" parent="JSByP0DEHDmS1XkmtdI1-121">
          <mxGeometry y="76" width="264.5" height="26" as="geometry" />
        </mxCell>
        <mxCell id="JSByP0DEHDmS1XkmtdI1-180" value="+ spacing: float | string" style="text;strokeColor=none;fillColor=none;align=left;verticalAlign=top;spacingLeft=4;spacingRight=4;overflow=hidden;rotatable=0;points=[[0,0.5],[1,0.5]];portConstraint=eastwest;whiteSpace=wrap;html=1;" vertex="1" parent="JSByP0DEHDmS1XkmtdI1-121">
          <mxGeometry y="102" width="264.5" height="26" as="geometry" />
        </mxCell>
        <mxCell id="JSByP0DEHDmS1XkmtdI1-125" value="+ pileRef: Pile" style="text;strokeColor=none;fillColor=none;align=left;verticalAlign=top;spacingLeft=4;spacingRight=4;overflow=hidden;rotatable=0;points=[[0,0.5],[1,0.5]];portConstraint=eastwest;whiteSpace=wrap;html=1;" vertex="1" parent="JSByP0DEHDmS1XkmtdI1-121">
          <mxGeometry y="128" width="264.5" height="26" as="geometry" />
        </mxCell>
        <mxCell id="JSByP0DEHDmS1XkmtdI1-130" value="" style="line;strokeWidth=1;fillColor=none;align=left;verticalAlign=middle;spacingTop=-1;spacingLeft=3;spacingRight=3;rotatable=0;labelPosition=right;points=[];portConstraint=eastwest;strokeColor=inherit;" vertex="1" parent="JSByP0DEHDmS1XkmtdI1-121">
          <mxGeometry y="154" width="264.5" height="8" as="geometry" />
        </mxCell>
        <mxCell id="JSByP0DEHDmS1XkmtdI1-131" value="+ setHelices(helices: Array&amp;lt;Helix&amp;gt;): void" style="text;strokeColor=none;fillColor=none;align=left;verticalAlign=top;spacingLeft=4;spacingRight=4;overflow=hidden;rotatable=0;points=[[0,0.5],[1,0.5]];portConstraint=eastwest;whiteSpace=wrap;html=1;" vertex="1" parent="JSByP0DEHDmS1XkmtdI1-121">
          <mxGeometry y="162" width="264.5" height="26" as="geometry" />
        </mxCell>
        <mxCell id="JSByP0DEHDmS1XkmtdI1-132" value="+ setDistanceFromBottom(distance: float): void" style="text;strokeColor=none;fillColor=none;align=left;verticalAlign=top;spacingLeft=4;spacingRight=4;overflow=hidden;rotatable=0;points=[[0,0.5],[1,0.5]];portConstraint=eastwest;whiteSpace=wrap;html=1;" vertex="1" parent="JSByP0DEHDmS1XkmtdI1-121">
          <mxGeometry y="188" width="264.5" height="26" as="geometry" />
        </mxCell>
        <mxCell id="JSByP0DEHDmS1XkmtdI1-181" value="+ setSpacing(spacing: float | string)" style="text;strokeColor=none;fillColor=none;align=left;verticalAlign=top;spacingLeft=4;spacingRight=4;overflow=hidden;rotatable=0;points=[[0,0.5],[1,0.5]];portConstraint=eastwest;whiteSpace=wrap;html=1;" vertex="1" parent="JSByP0DEHDmS1XkmtdI1-121">
          <mxGeometry y="214" width="264.5" height="26" as="geometry" />
        </mxCell>
        <mxCell id="JSByP0DEHDmS1XkmtdI1-133" value="+ setPileRef(pile: Pile): void" style="text;strokeColor=none;fillColor=none;align=left;verticalAlign=top;spacingLeft=4;spacingRight=4;overflow=hidden;rotatable=0;points=[[0,0.5],[1,0.5]];portConstraint=eastwest;whiteSpace=wrap;html=1;" vertex="1" parent="JSByP0DEHDmS1XkmtdI1-121">
          <mxGeometry y="240" width="264.5" height="26" as="geometry" />
        </mxCell>
        <mxCell id="JSByP0DEHDmS1XkmtdI1-140" value="ICommon&lt;br&gt;&lt;br&gt;&lt;span style=&quot;font-weight: normal;&quot;&gt;&lt;i style=&quot;border-color: var(--border-color);&quot;&gt;/types/common//&lt;/i&gt;Common&lt;/span&gt;" style="swimlane;fontStyle=1;align=center;verticalAlign=top;childLayout=stackLayout;horizontal=1;startSize=50;horizontalStack=0;resizeParent=1;resizeParentMax=0;resizeLast=0;collapsible=1;marginBottom=0;whiteSpace=wrap;html=1;fillColor=#dae8fc;strokeColor=#6c8ebf;" vertex="1" parent="WIyWlLk6GJQsqaUBKTNV-1">
          <mxGeometry x="800" y="650" width="280" height="162" as="geometry" />
        </mxCell>
        <mxCell id="JSByP0DEHDmS1XkmtdI1-141" value="+ id: float" style="text;strokeColor=none;fillColor=none;align=left;verticalAlign=top;spacingLeft=4;spacingRight=4;overflow=hidden;rotatable=0;points=[[0,0.5],[1,0.5]];portConstraint=eastwest;whiteSpace=wrap;html=1;" vertex="1" parent="JSByP0DEHDmS1XkmtdI1-140">
          <mxGeometry y="50" width="280" height="26" as="geometry" />
        </mxCell>
        <mxCell id="JSByP0DEHDmS1XkmtdI1-178" value="+ orientation: Orientation" style="text;strokeColor=none;fillColor=none;align=left;verticalAlign=top;spacingLeft=4;spacingRight=4;overflow=hidden;rotatable=0;points=[[0,0.5],[1,0.5]];portConstraint=eastwest;whiteSpace=wrap;html=1;" vertex="1" parent="JSByP0DEHDmS1XkmtdI1-140">
          <mxGeometry y="76" width="280" height="26" as="geometry" />
        </mxCell>
        <mxCell id="JSByP0DEHDmS1XkmtdI1-144" value="" style="line;strokeWidth=1;fillColor=none;align=left;verticalAlign=middle;spacingTop=-1;spacingLeft=3;spacingRight=3;rotatable=0;labelPosition=right;points=[];portConstraint=eastwest;strokeColor=inherit;" vertex="1" parent="JSByP0DEHDmS1XkmtdI1-140">
          <mxGeometry y="102" width="280" height="8" as="geometry" />
        </mxCell>
        <mxCell id="JSByP0DEHDmS1XkmtdI1-145" value="+ setId(id: float): void" style="text;strokeColor=none;fillColor=none;align=left;verticalAlign=top;spacingLeft=4;spacingRight=4;overflow=hidden;rotatable=0;points=[[0,0.5],[1,0.5]];portConstraint=eastwest;whiteSpace=wrap;html=1;" vertex="1" parent="JSByP0DEHDmS1XkmtdI1-140">
          <mxGeometry y="110" width="280" height="26" as="geometry" />
        </mxCell>
        <mxCell id="JSByP0DEHDmS1XkmtdI1-146" value="+ setOrientation(orientation: Orientation): void" style="text;strokeColor=none;fillColor=none;align=left;verticalAlign=top;spacingLeft=4;spacingRight=4;overflow=hidden;rotatable=0;points=[[0,0.5],[1,0.5]];portConstraint=eastwest;whiteSpace=wrap;html=1;" vertex="1" parent="JSByP0DEHDmS1XkmtdI1-140">
          <mxGeometry y="136" width="280" height="26" as="geometry" />
        </mxCell>
        <mxCell id="JSByP0DEHDmS1XkmtdI1-150" value="Orientation&lt;br&gt;&lt;br&gt;&lt;i style=&quot;border-color: var(--border-color); font-weight: normal;&quot;&gt;/types//commonCommon&lt;/i&gt;" style="swimlane;fontStyle=1;align=center;verticalAlign=top;childLayout=stackLayout;horizontal=1;startSize=50;horizontalStack=0;resizeParent=1;resizeParentMax=0;resizeLast=0;collapsible=1;marginBottom=0;whiteSpace=wrap;html=1;fillColor=#dae8fc;strokeColor=#6c8ebf;" vertex="1" parent="WIyWlLk6GJQsqaUBKTNV-1">
          <mxGeometry x="1220" y="520" width="200" height="162" as="geometry" />
        </mxCell>
        <mxCell id="JSByP0DEHDmS1XkmtdI1-151" value="+ position: Position" style="text;strokeColor=none;fillColor=none;align=left;verticalAlign=top;spacingLeft=4;spacingRight=4;overflow=hidden;rotatable=0;points=[[0,0.5],[1,0.5]];portConstraint=eastwest;whiteSpace=wrap;html=1;" vertex="1" parent="JSByP0DEHDmS1XkmtdI1-150">
          <mxGeometry y="50" width="200" height="26" as="geometry" />
        </mxCell>
        <mxCell id="JSByP0DEHDmS1XkmtdI1-152" value="+ rotation: float" style="text;strokeColor=none;fillColor=none;align=left;verticalAlign=top;spacingLeft=4;spacingRight=4;overflow=hidden;rotatable=0;points=[[0,0.5],[1,0.5]];portConstraint=eastwest;whiteSpace=wrap;html=1;" vertex="1" parent="JSByP0DEHDmS1XkmtdI1-150">
          <mxGeometry y="76" width="200" height="26" as="geometry" />
        </mxCell>
        <mxCell id="JSByP0DEHDmS1XkmtdI1-154" value="" style="line;strokeWidth=1;fillColor=none;align=left;verticalAlign=middle;spacingTop=-1;spacingLeft=3;spacingRight=3;rotatable=0;labelPosition=right;points=[];portConstraint=eastwest;strokeColor=inherit;" vertex="1" parent="JSByP0DEHDmS1XkmtdI1-150">
          <mxGeometry y="102" width="200" height="8" as="geometry" />
        </mxCell>
        <mxCell id="JSByP0DEHDmS1XkmtdI1-155" value="+ setPosition(position: float): void" style="text;strokeColor=none;fillColor=none;align=left;verticalAlign=top;spacingLeft=4;spacingRight=4;overflow=hidden;rotatable=0;points=[[0,0.5],[1,0.5]];portConstraint=eastwest;whiteSpace=wrap;html=1;" vertex="1" parent="JSByP0DEHDmS1XkmtdI1-150">
          <mxGeometry y="110" width="200" height="26" as="geometry" />
        </mxCell>
        <mxCell id="JSByP0DEHDmS1XkmtdI1-156" value="+ setRotation(rotation: float): void" style="text;strokeColor=none;fillColor=none;align=left;verticalAlign=top;spacingLeft=4;spacingRight=4;overflow=hidden;rotatable=0;points=[[0,0.5],[1,0.5]];portConstraint=eastwest;whiteSpace=wrap;html=1;" vertex="1" parent="JSByP0DEHDmS1XkmtdI1-150">
          <mxGeometry y="136" width="200" height="26" as="geometry" />
        </mxCell>
        <mxCell id="JSByP0DEHDmS1XkmtdI1-158" style="edgeStyle=orthogonalEdgeStyle;rounded=0;orthogonalLoop=1;jettySize=auto;html=1;entryX=0.013;entryY=0.104;entryDx=0;entryDy=0;entryPerimeter=0;" edge="1" parent="WIyWlLk6GJQsqaUBKTNV-1" source="JSByP0DEHDmS1XkmtdI1-151" target="JSByP0DEHDmS1XkmtdI1-34">
          <mxGeometry relative="1" as="geometry" />
        </mxCell>
        <mxCell id="JSByP0DEHDmS1XkmtdI1-195" value="extends" style="edgeStyle=orthogonalEdgeStyle;rounded=0;orthogonalLoop=1;jettySize=auto;html=1;entryX=0;entryY=0.5;entryDx=0;entryDy=0;" edge="1" parent="WIyWlLk6GJQsqaUBKTNV-1" source="JSByP0DEHDmS1XkmtdI1-160" target="JSByP0DEHDmS1XkmtdI1-141">
          <mxGeometry relative="1" as="geometry">
            <Array as="points">
              <mxPoint x="770" y="1237" />
              <mxPoint x="770" y="863" />
              <mxPoint x="780" y="863" />
              <mxPoint x="780" y="713" />
            </Array>
          </mxGeometry>
        </mxCell>
        <mxCell id="JSByP0DEHDmS1XkmtdI1-160" value="IHelix&lt;br style=&quot;border-color: var(--border-color);&quot;&gt;&lt;br style=&quot;border-color: var(--border-color);&quot;&gt;&lt;i style=&quot;border-color: var(--border-color); font-weight: normal;&quot;&gt;/types/Helix&lt;/i&gt;" style="swimlane;fontStyle=1;align=center;verticalAlign=top;childLayout=stackLayout;horizontal=1;startSize=50;horizontalStack=0;resizeParent=1;resizeParentMax=0;resizeLast=0;collapsible=1;marginBottom=0;whiteSpace=wrap;html=1;fillColor=#dae8fc;strokeColor=#6c8ebf;" vertex="1" parent="WIyWlLk6GJQsqaUBKTNV-1">
          <mxGeometry x="680" y="940" width="264.5" height="474" as="geometry" />
        </mxCell>
        <mxCell id="JSByP0DEHDmS1XkmtdI1-161" value="+ id: int" style="text;strokeColor=none;fillColor=none;align=left;verticalAlign=top;spacingLeft=4;spacingRight=4;overflow=hidden;rotatable=0;points=[[0,0.5],[1,0.5]];portConstraint=eastwest;whiteSpace=wrap;html=1;" vertex="1" parent="JSByP0DEHDmS1XkmtdI1-160">
          <mxGeometry y="50" width="264.5" height="26" as="geometry" />
        </mxCell>
        <mxCell id="JSByP0DEHDmS1XkmtdI1-162" value="+ number: int" style="text;strokeColor=none;fillColor=none;align=left;verticalAlign=top;spacingLeft=4;spacingRight=4;overflow=hidden;rotatable=0;points=[[0,0.5],[1,0.5]];portConstraint=eastwest;whiteSpace=wrap;html=1;" vertex="1" parent="JSByP0DEHDmS1XkmtdI1-160">
          <mxGeometry y="76" width="264.5" height="26" as="geometry" />
        </mxCell>
        <mxCell id="JSByP0DEHDmS1XkmtdI1-166" value="+ diameter: float" style="text;strokeColor=none;fillColor=none;align=left;verticalAlign=top;spacingLeft=4;spacingRight=4;overflow=hidden;rotatable=0;points=[[0,0.5],[1,0.5]];portConstraint=eastwest;whiteSpace=wrap;html=1;" vertex="1" parent="JSByP0DEHDmS1XkmtdI1-160">
          <mxGeometry y="102" width="264.5" height="26" as="geometry" />
        </mxCell>
        <mxCell id="JSByP0DEHDmS1XkmtdI1-167" value="+ thickness: float" style="text;strokeColor=none;fillColor=none;align=left;verticalAlign=top;spacingLeft=4;spacingRight=4;overflow=hidden;rotatable=0;points=[[0,0.5],[1,0.5]];portConstraint=eastwest;whiteSpace=wrap;html=1;" vertex="1" parent="JSByP0DEHDmS1XkmtdI1-160">
          <mxGeometry y="128" width="264.5" height="26" as="geometry" />
        </mxCell>
        <mxCell id="JSByP0DEHDmS1XkmtdI1-183" value="- rise: float" style="text;strokeColor=none;fillColor=none;align=left;verticalAlign=top;spacingLeft=4;spacingRight=4;overflow=hidden;rotatable=0;points=[[0,0.5],[1,0.5]];portConstraint=eastwest;whiteSpace=wrap;html=1;" vertex="1" parent="JSByP0DEHDmS1XkmtdI1-160">
          <mxGeometry y="154" width="264.5" height="26" as="geometry" />
        </mxCell>
        <mxCell id="JSByP0DEHDmS1XkmtdI1-185" value="- rotations: float" style="text;strokeColor=none;fillColor=none;align=left;verticalAlign=top;spacingLeft=4;spacingRight=4;overflow=hidden;rotatable=0;points=[[0,0.5],[1,0.5]];portConstraint=eastwest;whiteSpace=wrap;html=1;" vertex="1" parent="JSByP0DEHDmS1XkmtdI1-160">
          <mxGeometry y="180" width="264.5" height="26" as="geometry" />
        </mxCell>
        <mxCell id="JSByP0DEHDmS1XkmtdI1-186" value="- segsPerStep: float" style="text;strokeColor=none;fillColor=none;align=left;verticalAlign=top;spacingLeft=4;spacingRight=4;overflow=hidden;rotatable=0;points=[[0,0.5],[1,0.5]];portConstraint=eastwest;whiteSpace=wrap;html=1;" vertex="1" parent="JSByP0DEHDmS1XkmtdI1-160">
          <mxGeometry y="206" width="264.5" height="26" as="geometry" />
        </mxCell>
        <mxCell id="JSByP0DEHDmS1XkmtdI1-187" value="- radius: float" style="text;strokeColor=none;fillColor=none;align=left;verticalAlign=top;spacingLeft=4;spacingRight=4;overflow=hidden;rotatable=0;points=[[0,0.5],[1,0.5]];portConstraint=eastwest;whiteSpace=wrap;html=1;" vertex="1" parent="JSByP0DEHDmS1XkmtdI1-160">
          <mxGeometry y="232" width="264.5" height="26" as="geometry" />
        </mxCell>
        <mxCell id="JSByP0DEHDmS1XkmtdI1-168" value="" style="line;strokeWidth=1;fillColor=none;align=left;verticalAlign=middle;spacingTop=-1;spacingLeft=3;spacingRight=3;rotatable=0;labelPosition=right;points=[];portConstraint=eastwest;strokeColor=inherit;" vertex="1" parent="JSByP0DEHDmS1XkmtdI1-160">
          <mxGeometry y="258" width="264.5" height="8" as="geometry" />
        </mxCell>
        <mxCell id="JSByP0DEHDmS1XkmtdI1-169" value="+ setId(id: int): void" style="text;strokeColor=none;fillColor=none;align=left;verticalAlign=top;spacingLeft=4;spacingRight=4;overflow=hidden;rotatable=0;points=[[0,0.5],[1,0.5]];portConstraint=eastwest;whiteSpace=wrap;html=1;" vertex="1" parent="JSByP0DEHDmS1XkmtdI1-160">
          <mxGeometry y="266" width="264.5" height="26" as="geometry" />
        </mxCell>
        <mxCell id="JSByP0DEHDmS1XkmtdI1-170" value="+ setNumber(number: int): void" style="text;strokeColor=none;fillColor=none;align=left;verticalAlign=top;spacingLeft=4;spacingRight=4;overflow=hidden;rotatable=0;points=[[0,0.5],[1,0.5]];portConstraint=eastwest;whiteSpace=wrap;html=1;" vertex="1" parent="JSByP0DEHDmS1XkmtdI1-160">
          <mxGeometry y="292" width="264.5" height="26" as="geometry" />
        </mxCell>
        <mxCell id="JSByP0DEHDmS1XkmtdI1-171" value="+ setDiameter(diameter: float): void" style="text;strokeColor=none;fillColor=none;align=left;verticalAlign=top;spacingLeft=4;spacingRight=4;overflow=hidden;rotatable=0;points=[[0,0.5],[1,0.5]];portConstraint=eastwest;whiteSpace=wrap;html=1;" vertex="1" parent="JSByP0DEHDmS1XkmtdI1-160">
          <mxGeometry y="318" width="264.5" height="26" as="geometry" />
        </mxCell>
        <mxCell id="JSByP0DEHDmS1XkmtdI1-188" value="+ setThickness(thickness: float): void" style="text;strokeColor=none;fillColor=none;align=left;verticalAlign=top;spacingLeft=4;spacingRight=4;overflow=hidden;rotatable=0;points=[[0,0.5],[1,0.5]];portConstraint=eastwest;whiteSpace=wrap;html=1;" vertex="1" parent="JSByP0DEHDmS1XkmtdI1-160">
          <mxGeometry y="344" width="264.5" height="26" as="geometry" />
        </mxCell>
        <mxCell id="JSByP0DEHDmS1XkmtdI1-173" value="- setRise(rise: float): void" style="text;strokeColor=none;fillColor=none;align=left;verticalAlign=top;spacingLeft=4;spacingRight=4;overflow=hidden;rotatable=0;points=[[0,0.5],[1,0.5]];portConstraint=eastwest;whiteSpace=wrap;html=1;" vertex="1" parent="JSByP0DEHDmS1XkmtdI1-160">
          <mxGeometry y="370" width="264.5" height="26" as="geometry" />
        </mxCell>
        <mxCell id="JSByP0DEHDmS1XkmtdI1-174" value="- setRotations(rotations: float): void" style="text;strokeColor=none;fillColor=none;align=left;verticalAlign=top;spacingLeft=4;spacingRight=4;overflow=hidden;rotatable=0;points=[[0,0.5],[1,0.5]];portConstraint=eastwest;whiteSpace=wrap;html=1;" vertex="1" parent="JSByP0DEHDmS1XkmtdI1-160">
          <mxGeometry y="396" width="264.5" height="26" as="geometry" />
        </mxCell>
        <mxCell id="JSByP0DEHDmS1XkmtdI1-175" value="- setSegsPerStep(segsPerStep: int): void" style="text;strokeColor=none;fillColor=none;align=left;verticalAlign=top;spacingLeft=4;spacingRight=4;overflow=hidden;rotatable=0;points=[[0,0.5],[1,0.5]];portConstraint=eastwest;whiteSpace=wrap;html=1;" vertex="1" parent="JSByP0DEHDmS1XkmtdI1-160">
          <mxGeometry y="422" width="264.5" height="26" as="geometry" />
        </mxCell>
        <mxCell id="JSByP0DEHDmS1XkmtdI1-177" value="+ setRadius(radius: float): void" style="text;strokeColor=none;fillColor=none;align=left;verticalAlign=top;spacingLeft=4;spacingRight=4;overflow=hidden;rotatable=0;points=[[0,0.5],[1,0.5]];portConstraint=eastwest;whiteSpace=wrap;html=1;" vertex="1" parent="JSByP0DEHDmS1XkmtdI1-160">
          <mxGeometry y="448" width="264.5" height="26" as="geometry" />
        </mxCell>
        <mxCell id="JSByP0DEHDmS1XkmtdI1-179" style="edgeStyle=orthogonalEdgeStyle;rounded=0;orthogonalLoop=1;jettySize=auto;html=1;entryX=0;entryY=0.25;entryDx=0;entryDy=0;" edge="1" parent="WIyWlLk6GJQsqaUBKTNV-1" source="JSByP0DEHDmS1XkmtdI1-178" target="JSByP0DEHDmS1XkmtdI1-150">
          <mxGeometry relative="1" as="geometry" />
        </mxCell>
        <mxCell id="JSByP0DEHDmS1XkmtdI1-189" value="HelixContextType&lt;br&gt;&lt;br&gt;&lt;span style=&quot;font-weight: 400;&quot;&gt;&lt;i&gt;/types/Helix&lt;/i&gt;&lt;/span&gt;" style="swimlane;fontStyle=1;align=center;verticalAlign=top;childLayout=stackLayout;horizontal=1;startSize=50;horizontalStack=0;resizeParent=1;resizeParentMax=0;resizeLast=0;collapsible=1;marginBottom=0;whiteSpace=wrap;html=1;fillColor=#d5e8d4;strokeColor=#82b366;" vertex="1" parent="WIyWlLk6GJQsqaUBKTNV-1">
          <mxGeometry x="40" y="940" width="210" height="108" as="geometry" />
        </mxCell>
        <mxCell id="JSByP0DEHDmS1XkmtdI1-190" value="+ helices: IHelices" style="text;strokeColor=none;fillColor=none;align=left;verticalAlign=top;spacingLeft=4;spacingRight=4;overflow=hidden;rotatable=0;points=[[0,0.5],[1,0.5]];portConstraint=eastwest;whiteSpace=wrap;html=1;" vertex="1" parent="JSByP0DEHDmS1XkmtdI1-189">
          <mxGeometry y="50" width="210" height="24" as="geometry" />
        </mxCell>
        <mxCell id="JSByP0DEHDmS1XkmtdI1-191" value="" style="line;strokeWidth=1;fillColor=none;align=left;verticalAlign=middle;spacingTop=-1;spacingLeft=3;spacingRight=3;rotatable=0;labelPosition=right;points=[];portConstraint=eastwest;strokeColor=inherit;" vertex="1" parent="JSByP0DEHDmS1XkmtdI1-189">
          <mxGeometry y="74" width="210" height="8" as="geometry" />
        </mxCell>
        <mxCell id="JSByP0DEHDmS1XkmtdI1-192" value="+ setHelices(helices: Helices): void" style="text;strokeColor=none;fillColor=none;align=left;verticalAlign=top;spacingLeft=4;spacingRight=4;overflow=hidden;rotatable=0;points=[[0,0.5],[1,0.5]];portConstraint=eastwest;whiteSpace=wrap;html=1;" vertex="1" parent="JSByP0DEHDmS1XkmtdI1-189">
          <mxGeometry y="82" width="210" height="26" as="geometry" />
        </mxCell>
        <mxCell id="JSByP0DEHDmS1XkmtdI1-196" value="extends" style="edgeStyle=orthogonalEdgeStyle;rounded=0;orthogonalLoop=1;jettySize=auto;html=1;entryX=0;entryY=0.185;entryDx=0;entryDy=0;entryPerimeter=0;" edge="1" parent="WIyWlLk6GJQsqaUBKTNV-1" source="JSByP0DEHDmS1XkmtdI1-0" target="JSByP0DEHDmS1XkmtdI1-140">
          <mxGeometry relative="1" as="geometry">
            <Array as="points">
              <mxPoint x="650" y="539" />
              <mxPoint x="650" y="680" />
            </Array>
          </mxGeometry>
        </mxCell>
        <mxCell id="JSByP0DEHDmS1XkmtdI1-199" style="edgeStyle=orthogonalEdgeStyle;rounded=0;orthogonalLoop=1;jettySize=auto;html=1;entryX=0.007;entryY=0.063;entryDx=0;entryDy=0;entryPerimeter=0;" edge="1" parent="WIyWlLk6GJQsqaUBKTNV-1" source="JSByP0DEHDmS1XkmtdI1-121" target="JSByP0DEHDmS1XkmtdI1-160">
          <mxGeometry relative="1" as="geometry" />
        </mxCell>
        <mxCell id="JSByP0DEHDmS1XkmtdI1-200" style="edgeStyle=orthogonalEdgeStyle;rounded=0;orthogonalLoop=1;jettySize=auto;html=1;entryX=-0.004;entryY=0.119;entryDx=0;entryDy=0;entryPerimeter=0;" edge="1" parent="WIyWlLk6GJQsqaUBKTNV-1" source="JSByP0DEHDmS1XkmtdI1-189" target="JSByP0DEHDmS1XkmtdI1-121">
          <mxGeometry relative="1" as="geometry" />
        </mxCell>
        <mxCell id="JSByP0DEHDmS1XkmtdI1-202" value="Pile&lt;br&gt;&lt;br&gt;&lt;span style=&quot;font-weight: normal;&quot;&gt;&lt;i&gt;/components/Piles&lt;/i&gt;&lt;/span&gt;" style="swimlane;fontStyle=1;align=center;verticalAlign=top;childLayout=stackLayout;horizontal=1;startSize=60;horizontalStack=0;resizeParent=1;resizeParentMax=0;resizeLast=0;collapsible=1;marginBottom=0;whiteSpace=wrap;html=1;rounded=0;" vertex="1" parent="WIyWlLk6GJQsqaUBKTNV-1">
          <mxGeometry x="-240" y="360" width="160" height="328" as="geometry" />
        </mxCell>
        <mxCell id="JSByP0DEHDmS1XkmtdI1-203" value="+ id: number" style="text;strokeColor=none;fillColor=none;align=left;verticalAlign=top;spacingLeft=4;spacingRight=4;overflow=hidden;rotatable=0;points=[[0,0.5],[1,0.5]];portConstraint=eastwest;whiteSpace=wrap;html=1;" vertex="1" parent="JSByP0DEHDmS1XkmtdI1-202">
          <mxGeometry y="60" width="160" height="26" as="geometry" />
        </mxCell>
        <mxCell id="JSByP0DEHDmS1XkmtdI1-204" value="+ length: float" style="text;strokeColor=none;fillColor=none;align=left;verticalAlign=top;spacingLeft=4;spacingRight=4;overflow=hidden;rotatable=0;points=[[0,0.5],[1,0.5]];portConstraint=eastwest;whiteSpace=wrap;html=1;" vertex="1" parent="JSByP0DEHDmS1XkmtdI1-202">
          <mxGeometry y="86" width="160" height="26" as="geometry" />
        </mxCell>
        <mxCell id="JSByP0DEHDmS1XkmtdI1-205" value="+ diameter: float" style="text;strokeColor=none;fillColor=none;align=left;verticalAlign=top;spacingLeft=4;spacingRight=4;overflow=hidden;rotatable=0;points=[[0,0.5],[1,0.5]];portConstraint=eastwest;whiteSpace=wrap;html=1;" vertex="1" parent="JSByP0DEHDmS1XkmtdI1-202">
          <mxGeometry y="112" width="160" height="26" as="geometry" />
        </mxCell>
        <mxCell id="JSByP0DEHDmS1XkmtdI1-206" value="+ radius: float" style="text;strokeColor=none;fillColor=none;align=left;verticalAlign=top;spacingLeft=4;spacingRight=4;overflow=hidden;rotatable=0;points=[[0,0.5],[1,0.5]];portConstraint=eastwest;whiteSpace=wrap;html=1;" vertex="1" parent="JSByP0DEHDmS1XkmtdI1-202">
          <mxGeometry y="138" width="160" height="26" as="geometry" />
        </mxCell>
        <mxCell id="JSByP0DEHDmS1XkmtdI1-207" value="+ batterAngle: float" style="text;strokeColor=none;fillColor=none;align=left;verticalAlign=top;spacingLeft=4;spacingRight=4;overflow=hidden;rotatable=0;points=[[0,0.5],[1,0.5]];portConstraint=eastwest;whiteSpace=wrap;html=1;" vertex="1" parent="JSByP0DEHDmS1XkmtdI1-202">
          <mxGeometry y="164" width="160" height="26" as="geometry" />
        </mxCell>
        <mxCell id="JSByP0DEHDmS1XkmtdI1-208" value="+ position: Position" style="text;strokeColor=none;fillColor=none;align=left;verticalAlign=top;spacingLeft=4;spacingRight=4;overflow=hidden;rotatable=0;points=[[0,0.5],[1,0.5]];portConstraint=eastwest;whiteSpace=wrap;html=1;" vertex="1" parent="JSByP0DEHDmS1XkmtdI1-202">
          <mxGeometry y="190" width="160" height="26" as="geometry" />
        </mxCell>
        <mxCell id="JSByP0DEHDmS1XkmtdI1-209" value="+ field: type" style="text;strokeColor=none;fillColor=none;align=left;verticalAlign=top;spacingLeft=4;spacingRight=4;overflow=hidden;rotatable=0;points=[[0,0.5],[1,0.5]];portConstraint=eastwest;whiteSpace=wrap;html=1;" vertex="1" parent="JSByP0DEHDmS1XkmtdI1-202">
          <mxGeometry y="216" width="160" height="26" as="geometry" />
        </mxCell>
        <mxCell id="JSByP0DEHDmS1XkmtdI1-210" value="+ field: type" style="text;strokeColor=none;fillColor=none;align=left;verticalAlign=top;spacingLeft=4;spacingRight=4;overflow=hidden;rotatable=0;points=[[0,0.5],[1,0.5]];portConstraint=eastwest;whiteSpace=wrap;html=1;" vertex="1" parent="JSByP0DEHDmS1XkmtdI1-202">
          <mxGeometry y="242" width="160" height="26" as="geometry" />
        </mxCell>
        <mxCell id="JSByP0DEHDmS1XkmtdI1-211" value="+ field: type" style="text;strokeColor=none;fillColor=none;align=left;verticalAlign=top;spacingLeft=4;spacingRight=4;overflow=hidden;rotatable=0;points=[[0,0.5],[1,0.5]];portConstraint=eastwest;whiteSpace=wrap;html=1;" vertex="1" parent="JSByP0DEHDmS1XkmtdI1-202">
          <mxGeometry y="268" width="160" height="26" as="geometry" />
        </mxCell>
        <mxCell id="JSByP0DEHDmS1XkmtdI1-212" value="" style="line;strokeWidth=1;fillColor=none;align=left;verticalAlign=middle;spacingTop=-1;spacingLeft=3;spacingRight=3;rotatable=0;labelPosition=right;points=[];portConstraint=eastwest;strokeColor=inherit;" vertex="1" parent="JSByP0DEHDmS1XkmtdI1-202">
          <mxGeometry y="294" width="160" height="8" as="geometry" />
        </mxCell>
        <mxCell id="JSByP0DEHDmS1XkmtdI1-213" value="+ method(type): type" style="text;strokeColor=none;fillColor=none;align=left;verticalAlign=top;spacingLeft=4;spacingRight=4;overflow=hidden;rotatable=0;points=[[0,0.5],[1,0.5]];portConstraint=eastwest;whiteSpace=wrap;html=1;" vertex="1" parent="JSByP0DEHDmS1XkmtdI1-202">
          <mxGeometry y="302" width="160" height="26" as="geometry" />
        </mxCell>
      </root>
    </mxGraphModel>
  </diagram>
</mxfile>
